<?xml version="1.0" standalone="no"?>
<!DOCTYPE svg PUBLIC "-//W3C//DTD SVG 20010904//EN"
 "http://www.w3.org/TR/2001/REC-SVG-20010904/DTD/svg10.dtd">
<svg version="1.0" xmlns="http://www.w3.org/2000/svg"
 width="1280.000000pt" height="720.000000pt" viewBox="0 0 1280.000000 720.000000"
 preserveAspectRatio="xMidYMid meet">

<g transform="translate(0.000000,720.000000) scale(0.100000,-0.100000)"
fill="#000000" stroke="none">
<path d="M7395 6194 c-113 -12 -262 -37 -358 -60 -105 -25 -111 -26 -210 -13
-56 8 -189 14 -297 14 -257 0 -362 -22 -562 -117 l-87 -41 -123 36 c-739 218
-1322 116 -1624 -286 -60 -80 -137 -239 -168 -349 -59 -207 -77 -525 -42 -758
76 -503 270 -1218 431 -1585 169 -387 337 -598 533 -666 45 -16 75 -20 147
-17 102 4 164 28 248 92 l48 37 44 -45 c155 -160 541 -208 807 -102 36 14 67
26 70 26 3 0 8 -91 12 -203 13 -379 36 -541 104 -735 50 -142 90 -208 169
-282 70 -66 146 -105 241 -126 91 -19 163 -18 280 5 556 108 754 412 802 1231
6 96 13 190 16 208 l6 32 137 0 c337 0 606 95 799 283 100 98 137 191 112 281
-16 58 -59 109 -117 137 -57 27 -158 29 -273 4 -71 -15 -290 -33 -290 -23 0 2
30 56 66 119 357 620 594 1367 594 1873 0 286 -50 409 -244 601 -214 213 -489
351 -805 406 -112 19 -377 32 -466 23z m497 -143 c184 -40 355 -112 505 -212
97 -64 289 -256 325 -325 143 -267 42 -936 -243 -1605 -82 -193 -252 -526
-344 -674 -41 -66 -75 -123 -75 -127 0 -3 21 -15 48 -25 64 -24 318 -25 441 0
46 9 110 17 143 17 52 0 63 -3 89 -29 55 -56 33 -128 -66 -219 -107 -98 -262
-175 -417 -207 -122 -26 -287 -37 -379 -25 -46 6 -93 12 -103 13 -18 2 -22
-15 -48 -233 -43 -365 -87 -667 -109 -760 -51 -209 -150 -341 -319 -423 -159
-78 -360 -118 -489 -98 -189 29 -306 120 -396 306 -74 153 -93 301 -102 826
l-6 336 -72 -52 c-130 -93 -243 -128 -410 -129 -313 0 -531 145 -415 278 37
42 79 59 236 96 163 39 206 62 272 144 73 92 73 93 10 101 -78 10 -163 33
-214 58 l-44 21 -45 -49 c-25 -28 -128 -145 -230 -262 -248 -284 -287 -312
-421 -313 -60 0 -81 5 -134 32 -146 73 -281 261 -418 583 -166 389 -324 955
-406 1457 -69 412 -28 771 115 1025 54 96 198 245 284 295 324 186 779 193
1327 21 l118 -36 97 51 c236 123 533 154 850 88 57 -12 68 -12 145 11 74 21
245 55 338 67 19 2 132 3 250 1 173 -2 234 -7 312 -24z m-2107 -3121 c3 -4 -7
-11 -23 -14 -15 -4 -36 -10 -47 -13 -19 -5 -18 -4 3 20 22 23 55 27 67 7z"/>
<path d="M7400 5954 c-102 -11 -260 -37 -260 -44 0 -4 14 -13 32 -19 17 -6 68
-32 112 -57 341 -196 642 -562 765 -930 29 -85 30 -98 25 -195 -3 -57 -14
-166 -25 -242 -23 -168 -24 -303 -3 -467 9 -69 17 -190 17 -270 0 -166 -18
-251 -79 -378 -36 -74 -36 -75 -16 -94 20 -20 20 -20 56 36 108 170 291 536
379 761 165 421 245 752 254 1055 9 268 -12 331 -156 476 -186 189 -402 299
-681 350 -80 14 -342 25 -420 18z"/>
<path d="M6301 5885 c-251 -57 -423 -175 -568 -390 -123 -183 -198 -421 -237
-752 l-7 -52 95 45 c144 68 266 96 396 92 90 -3 114 -8 168 -33 72 -32 137
-97 172 -172 54 -115 96 -426 87 -653 -7 -183 -32 -284 -122 -496 -71 -165
-99 -239 -120 -316 l-13 -48 38 6 c92 15 215 -65 261 -169 22 -51 22 -58 24
-492 1 -242 5 -476 9 -520 29 -331 37 -371 92 -474 61 -115 133 -178 238 -206
123 -33 314 -3 473 75 139 69 218 182 257 370 36 175 136 977 136 1089 0 166
56 269 174 317 25 10 44 24 42 29 -2 6 -32 48 -67 95 -36 47 -82 121 -103 165
-22 44 -78 150 -124 235 -205 371 -293 619 -294 820 -1 135 28 213 104 287 90
87 234 129 421 121 l98 -4 -6 26 c-10 39 -81 186 -130 270 -178 301 -467 551
-772 666 -146 56 -263 75 -468 80 -142 3 -206 0 -254 -11z"/>
<path d="M4856 5879 c-312 -47 -529 -213 -631 -484 -51 -133 -66 -226 -72
-430 -6 -212 2 -289 63 -595 126 -631 341 -1266 521 -1540 71 -106 135 -174
195 -204 123 -62 156 -40 433 279 71 83 154 176 184 208 l55 58 -45 47 c-98
102 -161 212 -196 342 -22 81 -23 240 -4 440 10 106 12 214 6 405 -5 207 -3
287 9 392 45 381 158 669 350 896 32 37 57 70 55 71 -8 8 -218 65 -294 80
-208 42 -481 57 -629 35z"/>
<path d="M7635 4716 c-90 -22 -142 -61 -181 -136 -27 -51 -24 -198 5 -309 43
-162 103 -294 325 -715 l84 -159 16 38 c56 134 66 272 37 527 -26 232 -26 319
-2 501 11 78 23 167 26 198 l7 56 -32 7 c-53 10 -231 5 -285 -8z m143 -82 c28
-19 28 -44 1 -78 -44 -56 -118 -72 -176 -36 -42 25 -57 54 -43 80 6 11 12 20
13 20 1 0 20 7 42 15 54 19 135 19 163 -1z"/>
<path d="M5857 4695 c-91 -17 -242 -77 -317 -125 l-52 -33 7 -181 c4 -111 2
-231 -5 -311 -31 -357 -24 -439 48 -585 84 -170 287 -310 452 -310 l36 0 38
113 c21 61 65 171 96 243 97 218 120 322 121 533 0 195 -39 460 -81 540 -55
108 -173 147 -343 116z m214 -96 c21 -7 48 -23 60 -36 22 -22 22 -25 7 -57
-28 -58 -116 -83 -177 -51 -39 20 -81 72 -81 100 0 13 10 31 22 39 27 19 114
21 169 5z"/>
<path d="M7915 2994 c-74 -27 -105 -80 -105 -177 0 -44 2 -46 38 -59 62 -22
317 -16 428 9 139 32 293 111 361 185 l23 24 -103 -18 c-240 -41 -414 -33
-525 23 -65 33 -63 33 -117 13z"/>
<path d="M6142 2943 c-26 -27 -77 -84 -115 -126 -80 -90 -123 -113 -282 -152
-149 -36 -185 -47 -185 -56 0 -17 78 -48 160 -65 164 -33 334 -5 460 76 67 43
158 144 166 185 14 78 -46 170 -119 182 -35 5 -41 2 -85 -44z"/>
</g>
</svg>
